<svg width="35" height="34" viewBox="0 0 35 34" fill="none" xmlns="http://www.w3.org/2000/svg">
<path d="M20.7256 5.66671L23.2849 8.50004H28.949V25.5H6.57246V8.50004H12.2365L14.7958 5.66671H20.7256M21.9563 2.83337H13.5651L11.0058 5.66671H6.57246C5.03407 5.66671 3.77539 6.94171 3.77539 8.50004V25.5C3.77539 27.0584 5.03407 28.3334 6.57246 28.3334H28.949C30.4874 28.3334 31.7461 27.0584 31.7461 25.5V8.50004C31.7461 6.94171 30.4874 5.66671 28.949 5.66671H24.5156L21.9563 2.83337ZM17.7607 12.75C20.0683 12.75 21.9563 14.6625 21.9563 17C21.9563 19.3375 20.0683 21.25 17.7607 21.25C15.4531 21.25 13.5651 19.3375 13.5651 17C13.5651 14.6625 15.4531 12.75 17.7607 12.75ZM17.7607 9.91671C13.9008 9.91671 10.7681 13.09 10.7681 17C10.7681 20.91 13.9008 24.0834 17.7607 24.0834C21.6207 24.0834 24.7534 20.91 24.7534 17C24.7534 13.09 21.6207 9.91671 17.7607 9.91671Z" fill="#F21C1C"/>
</svg>
