<svg width="32" height="34" viewBox="0 0 32 34" fill="none" xmlns="http://www.w3.org/2000/svg">
<g clip-path="url(#clip0_297_8)">
<path d="M25.2106 11.3334V22.6667H20.0701V11.3334H25.2106ZM25.2106 7.08337H20.0701C17.9368 7.08337 16.2147 8.98171 16.2147 11.3334V22.6667C16.2147 25.0184 17.9368 26.9167 20.0701 26.9167H25.2106C27.344 26.9167 29.0661 25.0184 29.0661 22.6667V11.3334C29.0661 8.98171 27.344 7.08337 25.2106 7.08337ZM13.6444 11.3334V7.08337H7.2187C5.08537 7.08337 3.36328 8.98171 3.36328 11.3334V22.6667C3.36328 25.0184 5.08537 26.9167 7.2187 26.9167H11.0741C13.2074 26.9167 14.9295 25.0184 14.9295 22.6667V18.4167C14.9295 16.065 13.2074 14.1667 11.0741 14.1667H7.2187V11.3334H13.6444ZM11.0741 18.4167V22.6667H7.2187V18.4167H11.0741Z" fill="#CD00EE"/>
</g>
<defs>
<clipPath id="clip0_297_8">
<rect width="30.8433" height="34" fill="white" transform="translate(0.792969)"/>
</clipPath>
</defs>
</svg>
