<svg width="25" height="30" viewBox="0 0 25 30" fill="none" xmlns="http://www.w3.org/2000/svg">
<path d="M16.2687 0H8.2137V2.85714H16.2687V0ZM21.679 9.12857L23.5853 7.1C23.0081 6.37143 22.3771 5.68571 21.6924 5.08571L19.7861 7.11429C17.7052 5.34286 15.0873 4.28571 12.2412 4.28571C5.56897 4.28571 0.158691 10.0429 0.158691 17.1429C0.158691 24.2429 5.55555 30 12.2412 30C18.9269 30 24.3237 24.2429 24.3237 17.1429C24.3237 14.1143 23.3303 11.3286 21.679 9.12857ZM12.2412 27.1429C7.04572 27.1429 2.84369 22.6714 2.84369 17.1429C2.84369 11.6143 7.04572 7.14286 12.2412 7.14286C17.4367 7.14286 21.6387 11.6143 21.6387 17.1429C21.6387 22.6714 17.4367 27.1429 12.2412 27.1429ZM11.8116 20H4.65607C5.4213 22.3143 7.09942 24.1714 9.234 25.0857L9.08633 25L11.8116 20ZM19.8263 14.2857C19.0611 12 17.4367 10.1571 15.3424 9.22857L12.5903 14.2857H19.8263ZM10.3751 25.4714C10.9793 25.6286 11.5968 25.7143 12.2412 25.7143C14.0402 25.7143 15.6914 25.0714 17.0339 24.0143L14.2013 18.4429L10.3751 25.4714V25.4714ZM6.26707 11.4143C4.97827 12.9286 4.1862 14.9429 4.1862 17.1429C4.1862 17.6286 4.2399 18.1 4.30702 18.5714H10.6436L6.26707 11.4143ZM18.0677 23.0429C19.4504 21.5143 20.2962 19.4286 20.2962 17.1429C20.2962 16.6571 20.2425 16.1857 20.1754 15.7143H14.3489L18.0677 23.0429V23.0429ZM14.0267 8.78571C13.4495 8.65714 12.8588 8.57143 12.2412 8.57143C10.3617 8.57143 8.62988 9.27143 7.26052 10.4143L10.3751 15.5L14.0267 8.78571V8.78571Z" fill="#00891E"/>
</svg>
